<svg width="375" height="217" viewBox="0 0 375 217" fill="none" xmlns="http://www.w3.org/2000/svg">
<path d="M296.379 216.478C129.379 220.478 24.8785 157.478 32.3785 129.478C39.8785 101.478 354.378 114.478 389.879 129.478C425.379 144.478 373.879 216.478 296.379 216.478Z" fill="#A3B5CD" fill-opacity="0.78"/>
<g clip-path="url(#clip0_0_1)">
<path d="M170.936 193C193.615 193 212 190.276 212 186.916C212 183.555 193.615 180.831 170.936 180.831C148.256 180.831 129.871 183.555 129.871 186.916C129.871 190.276 148.256 193 170.936 193Z" fill="#E6E6E6"/>
<path d="M-6 0H211.754V0.000177667C211.754 23.4596 207.088 46.6893 198.022 68.3629C188.957 90.0366 175.669 109.73 158.917 126.318C142.166 142.906 122.279 156.065 100.392 165.042C78.5057 174.02 55.0476 178.641 31.3576 178.641H-6V0Z" fill="#3F3D56"/>
<path d="M154.455 60.9195C164.212 60.9195 172.121 53.0867 172.121 43.4246C172.121 33.7624 164.212 25.9297 154.455 25.9297C144.697 25.9297 136.788 33.7624 136.788 43.4246C136.788 53.0867 144.697 60.9195 154.455 60.9195Z" fill="#F2F2F2"/>
<path d="M100.192 9.43467C101.028 9.43467 101.706 8.76329 101.706 7.93511C101.706 7.10692 101.028 6.43555 100.192 6.43555C99.3557 6.43555 98.6777 7.10692 98.6777 7.93511C98.6777 8.76329 99.3557 9.43467 100.192 9.43467Z" fill="#FF6584"/>
<path d="M149.407 109.905C150.243 109.905 150.921 109.234 150.921 108.406C150.921 107.578 150.243 106.906 149.407 106.906C148.571 106.906 147.893 107.578 147.893 108.406C147.893 109.234 148.571 109.905 149.407 109.905Z" fill="#FF6584"/>
<path d="M154.455 9.43467C155.291 9.43467 155.969 8.76329 155.969 7.93511C155.969 7.10692 155.291 6.43555 154.455 6.43555C153.618 6.43555 152.94 7.10692 152.94 7.93511C152.94 8.76329 153.618 9.43467 154.455 9.43467Z" fill="#F2F2F2"/>
<path d="M175.655 81.6642C176.491 81.6642 177.169 80.9928 177.169 80.1646C177.169 79.3364 176.491 78.665 175.655 78.665C174.819 78.665 174.141 79.3364 174.141 80.1646C174.141 80.9928 174.819 81.6642 175.655 81.6642Z" fill="#F2F2F2"/>
<path d="M115.335 49.923C116.171 49.923 116.849 49.2516 116.849 48.4234C116.849 47.5952 116.171 46.9238 115.335 46.9238C114.499 46.9238 113.821 47.5952 113.821 48.4234C113.821 49.2516 114.499 49.923 115.335 49.923Z" fill="#F2F2F2"/>
<path d="M35.3294 39.9259C36.1657 39.9259 36.8437 39.2545 36.8437 38.4263C36.8437 37.5981 36.1657 36.9268 35.3294 36.9268C34.493 36.9268 33.8151 37.5981 33.8151 38.4263C33.8151 39.2545 34.493 39.9259 35.3294 39.9259Z" fill="#F2F2F2"/>
<path d="M63.8488 151.643C92.2839 151.643 115.335 128.816 115.335 100.658C115.335 72.4997 92.2839 49.6729 63.8488 49.6729C35.4136 49.6729 12.3624 72.4997 12.3624 100.658C12.3624 128.816 35.4136 151.643 63.8488 151.643Z" fill="#6C63FF"/>
<path opacity="0.2" d="M61.5773 87.4116C65.7589 87.4116 69.1488 84.0548 69.1488 79.9138C69.1488 75.7729 65.7589 72.416 61.5773 72.416C57.3957 72.416 54.0058 75.7729 54.0058 79.9138C54.0058 84.0548 57.3957 87.4116 61.5773 87.4116Z" fill="black"/>
<path opacity="0.2" d="M61.5773 143.146C68.8255 143.146 74.7013 137.327 74.7013 130.15C74.7013 122.972 68.8255 117.153 61.5773 117.153C54.3291 117.153 48.4533 122.972 48.4533 130.15C48.4533 137.327 54.3291 143.146 61.5773 143.146Z" fill="black"/>
<path opacity="0.2" d="M23.4673 113.654C25.2794 113.654 26.7483 112.2 26.7483 110.405C26.7483 108.611 25.2794 107.156 23.4673 107.156C21.6553 107.156 20.1863 108.611 20.1863 110.405C20.1863 112.2 21.6553 113.654 23.4673 113.654Z" fill="black"/>
<path opacity="0.2" d="M152.918 36.1282C153.881 36.1282 154.662 35.3549 154.662 34.401C154.662 33.4471 153.881 32.6738 152.918 32.6738C151.955 32.6738 151.174 33.4471 151.174 34.401C151.174 35.3549 151.955 36.1282 152.918 36.1282Z" fill="black"/>
<path opacity="0.2" d="M78.9693 70.3684C79.9326 70.3684 80.7134 69.5951 80.7134 68.6412C80.7134 67.6873 79.9326 66.9141 78.9693 66.9141C78.006 66.9141 77.2251 67.6873 77.2251 68.6412C77.2251 69.5951 78.006 70.3684 78.9693 70.3684Z" fill="black"/>
<path opacity="0.2" d="M59.3059 105.157C60.5604 105.157 61.5773 104.15 61.5773 102.908C61.5773 101.665 60.5604 100.658 59.3059 100.658C58.0514 100.658 57.0344 101.665 57.0344 102.908C57.0344 104.15 58.0514 105.157 59.3059 105.157Z" fill="black"/>
<path opacity="0.2" d="M148.672 49.928C149.636 49.928 150.416 49.1547 150.416 48.2008C150.416 47.2469 149.636 46.4736 148.672 46.4736C147.709 46.4736 146.928 47.2469 146.928 48.2008C146.928 49.1547 147.709 49.928 148.672 49.928Z" fill="black"/>
<path opacity="0.2" d="M101.729 92.4153C102.692 92.4153 103.473 91.642 103.473 90.6881C103.473 89.7342 102.692 88.9609 101.729 88.9609C100.766 88.9609 99.9847 89.7342 99.9847 90.6881C99.9847 91.642 100.766 92.4153 101.729 92.4153Z" fill="black"/>
<path opacity="0.2" d="M164.302 49.0658C165.694 49.0658 166.821 47.9488 166.821 46.571C166.821 45.1931 165.694 44.0762 164.302 44.0762C162.911 44.0762 161.783 45.1931 161.783 46.571C161.783 47.9488 162.911 49.0658 164.302 49.0658Z" fill="black"/>
<path opacity="0.2" d="M87.325 110.798C88.7164 110.798 89.8443 109.681 89.8443 108.303C89.8443 106.926 88.7164 105.809 87.325 105.809C85.9336 105.809 84.8057 106.926 84.8057 108.303C84.8057 109.681 85.9336 110.798 87.325 110.798Z" fill="black"/>
<path opacity="0.2" d="M32.0484 83.1632C33.8604 83.1632 35.3294 81.7085 35.3294 79.9141C35.3294 78.1197 33.8604 76.665 32.0484 76.665C30.2363 76.665 28.7674 78.1197 28.7674 79.9141C28.7674 81.7085 30.2363 83.1632 32.0484 83.1632Z" fill="black"/>
<path d="M75.0039 130.047C69.5894 130.04 64.1796 129.73 58.8003 129.12C42.6209 127.3 27.6989 123.001 16.7833 117.013C5.73414 110.953 0.0802614 103.856 0.862935 97.0309C1.40517 92.3023 6.02054 88.0699 14.9727 84.0923C15.0948 84.0383 15.2336 84.0345 15.3585 84.0817C15.4835 84.1289 15.5844 84.2233 15.6391 84.3441C15.6939 84.465 15.698 84.6024 15.6505 84.7262C15.603 84.8501 15.5079 84.9502 15.386 85.0046C6.78706 88.825 2.36467 92.7958 1.86606 97.1436C1.13232 103.541 6.60381 110.287 17.2726 116.139C28.0748 122.064 42.8634 126.321 58.9142 128.126C74.9651 129.931 90.341 129.066 102.21 125.691C113.932 122.357 120.792 116.998 121.525 110.601C122.022 106.273 119.615 101.684 114.564 97.3301C114.463 97.243 114.401 97.1198 114.392 96.9875C114.382 96.8552 114.427 96.7247 114.515 96.6247C114.603 96.5247 114.727 96.4634 114.861 96.4543C114.994 96.4451 115.126 96.4889 115.227 96.5759C120.539 101.156 123.064 106.044 122.529 110.713C121.746 117.539 114.629 123.199 102.489 126.652C94.5843 128.9 85.1497 130.047 75.0039 130.047Z" fill="white"/>
<path d="M154.191 175.501L154.549 178.69L151.329 178.335V174.438L154.191 175.501Z" fill="#FFB8B8"/>
<path d="M187.818 175.501L187.46 178.69L190.68 178.335V174.438L187.818 175.501Z" fill="#FFB8B8"/>
<path d="M153.833 106.776L152.402 143.264C152.402 143.264 147.752 170.541 148.825 171.25C149.898 171.958 148.825 175.855 148.825 175.855L154.906 176.564C154.906 176.564 154.906 173.73 156.337 172.667C157.768 171.604 171.004 121.655 171.004 121.655L184.598 169.833C184.598 169.833 184.24 172.667 185.314 172.667C186.387 172.667 186.745 176.564 186.745 176.564H192.826V172.667C192.826 172.667 194.615 172.313 193.541 169.479C192.468 166.645 188.533 106.776 188.533 106.776L153.833 106.776Z" fill="#2F2E41"/>
<path d="M152.045 175.501C152.045 175.501 150.256 174.438 149.54 175.147C148.825 175.855 143.101 182.94 143.101 182.94C143.101 182.94 135.231 187.9 142.386 189.317C149.54 190.734 154.906 184.003 155.264 183.295C155.622 182.586 154.906 176.918 154.549 177.627C154.191 178.335 153.118 177.981 152.76 177.627C152.402 177.272 152.045 175.501 152.045 175.501Z" fill="#2F2E41"/>
<path d="M189.964 175.501C189.964 175.501 191.753 174.438 192.468 175.147C193.184 175.855 198.907 182.94 198.907 182.94C198.907 182.94 206.778 187.9 199.623 189.317C192.468 190.734 187.102 184.003 186.745 183.295C186.387 182.586 187.102 176.918 187.46 177.627C187.818 178.335 188.891 177.981 189.249 177.627C189.606 177.272 189.964 175.501 189.964 175.501Z" fill="#2F2E41"/>
<path d="M175.476 54.3475C179.526 54.3475 182.809 51.0961 182.809 47.0854C182.809 43.0746 179.526 39.8232 175.476 39.8232C171.426 39.8232 168.142 43.0746 168.142 47.0854C168.142 51.0961 171.426 54.3475 175.476 54.3475Z" fill="#A6775B"/>
<path d="M170.647 51.1598L169.573 62.1415L178.159 63.9129L180.305 50.8057L170.647 51.1598Z" fill="#A6775B"/>
<path d="M179.59 59.6619C179.59 59.6619 177.444 64.2671 169.573 59.3076L154.906 106.777C154.906 106.777 174.582 118.467 187.102 109.611L182.809 61.7874L179.59 59.6619Z" fill="#575A89"/>
<path d="M171.004 54.3479L164.207 53.2852L163.492 57.8904C163.492 57.8904 154.191 58.9532 153.118 62.4957L154.191 88.7101C154.191 88.7101 150.971 94.3781 153.833 97.9206C153.833 97.9206 149.183 107.485 152.76 109.257C152.76 109.257 160.988 105.36 165.996 106.423C165.996 106.423 168.858 105.714 168.858 103.589C168.858 101.463 171.004 54.3479 171.004 54.3479Z" fill="#2F2E41"/>
<path d="M179.232 55.0566L183.167 56.1194L183.525 61.0789C183.525 61.0789 193.184 67.1011 193.541 70.6436C193.899 74.1861 186.387 91.1901 186.387 91.1901C186.387 91.1901 189.249 96.1496 188.175 99.3378C188.175 99.3378 192.826 108.548 189.964 111.028C189.964 111.028 184.598 112.445 183.883 110.32C183.167 108.194 176.728 83.7509 179.59 72.0606C179.59 72.0606 176.728 57.1821 179.232 55.0566Z" fill="#2F2E41"/>
<path d="M183.346 66.593H183.211V62.9403C183.211 62.6626 183.156 62.3877 183.049 62.1312C182.942 61.8747 182.784 61.6417 182.586 61.4454C182.388 61.2491 182.153 61.0933 181.894 60.9871C181.635 60.8809 181.357 60.8262 181.077 60.8262H173.262C172.981 60.8262 172.704 60.8809 172.445 60.9871C172.186 61.0933 171.95 61.2491 171.752 61.4454C171.554 61.6417 171.397 61.8747 171.289 62.1312C171.182 62.3877 171.127 62.6626 171.127 62.9403V82.9793C171.127 83.2569 171.182 83.5318 171.289 83.7883C171.397 84.0448 171.554 84.2779 171.752 84.4742C171.95 84.6705 172.186 84.8262 172.445 84.9325C172.704 85.0387 172.981 85.0934 173.262 85.0934H181.077C181.357 85.0934 181.635 85.0387 181.894 84.9325C182.153 84.8262 182.388 84.6705 182.586 84.4742C182.784 84.2779 182.942 84.0448 183.049 83.7883C183.156 83.5318 183.211 83.2569 183.211 82.9793V69.193H183.346V66.593Z" fill="white"/>
<path d="M186.745 80.9162C186.745 80.9162 183.883 71.7057 179.59 74.5397C175.297 77.3736 182.452 85.1672 182.452 85.1672L186.745 80.9162Z" fill="#A6775B"/>
<path d="M167.069 74.1858C167.069 74.1858 172.078 68.1636 174.582 70.9976C177.086 73.8316 170.289 80.2081 170.289 80.2081L167.069 74.1858Z" fill="#A6775B"/>
<path d="M154.191 62.1416C154.191 62.1416 152.402 61.7873 151.329 64.9756C150.256 68.1638 146.321 80.2083 146.321 82.3338C146.321 84.4593 147.752 92.9613 155.622 91.5443C163.492 90.1273 172.793 80.2083 172.793 80.2083L167.785 72.7691L157.053 79.1456L154.191 62.1416Z" fill="#2F2E41"/>
<path opacity="0.1" d="M155.737 71.3252L157.232 78.9681L168.321 72.5918L157.947 76.4885L155.66 70.8691L155.737 71.3252Z" fill="black"/>
<path opacity="0.1" d="M187.281 78.968L188.712 80.0309L189.428 75.0713L187.281 78.968Z" fill="black"/>
<path opacity="0.1" d="M154.012 92.4302C154.012 92.4302 164.52 89.5995 169.461 83.3984C169.461 83.3984 164.386 91.7217 154.012 92.4302Z" fill="black"/>
<path opacity="0.1" d="M180.484 86.0527C180.484 86.0527 182.697 96.7759 188.387 97.0823C188.387 97.0823 181.557 99.16 180.484 86.0527Z" fill="black"/>
<path d="M192.11 69.2266C192.11 69.2266 193.184 69.9351 193.899 73.1233C194.615 76.3116 199.265 88.3561 197.476 91.1901C195.688 94.0241 192.826 100.401 186.745 96.1496L180.663 85.1678L186.745 79.4998L189.249 81.2711L192.11 69.2266Z" fill="#2F2E41"/>
<path d="M168.436 48.9277C168.436 48.9277 162.285 39.0568 168.836 38.5434C171.023 38.392 173.157 37.816 175.119 36.8483C177.29 35.754 180.024 34.9223 181.478 36.6067C182.113 37.377 182.853 38.0559 183.677 38.6239C184.955 39.463 186.433 40.8233 185.615 42.2826L184.273 44.6748L182.394 49.4594C182.831 47.3957 182.842 45.6629 181.723 44.8077C181.723 44.8077 175.476 47.4401 172.328 42.6813C168.804 40.0629 167.683 48.3043 168.436 48.9277Z" fill="#2F2E41"/>
<path d="M177.265 69.7573C178.252 69.7573 179.053 68.9643 179.053 67.9861C179.053 67.0079 178.252 66.2148 177.265 66.2148C176.277 66.2148 175.476 67.0079 175.476 67.9861C175.476 68.9643 176.277 69.7573 177.265 69.7573Z" fill="#6C63FF"/>
</g>
<g clip-path="url(#clip1_0_1)">
<path opacity="0.2" d="M234.594 111.845C234.594 111.845 234.762 115.216 227.599 119.373C227.599 119.373 227.591 119.392 280.033 119.373C280.033 119.373 274.045 115.103 273.654 110.328" fill="black"/>
<path d="M273.432 109.435V81.1097C273.769 81.0219 274.068 80.824 274.282 80.5471C274.495 80.2702 274.611 79.93 274.611 79.5798C274.611 79.3724 274.571 79.1669 274.492 78.9753C274.412 78.7836 274.297 78.6094 274.15 78.4627C274.004 78.316 273.831 78.1996 273.64 78.1203C273.449 78.0409 273.244 78 273.038 78H235.271C235.064 78 234.86 78.0409 234.669 78.1203C234.478 78.1996 234.304 78.316 234.158 78.4627C234.012 78.6094 233.896 78.7836 233.817 78.9753C233.738 79.1669 233.697 79.3724 233.697 79.5798C233.697 79.9988 233.863 80.4007 234.158 80.6969C234.453 80.9932 234.854 81.1597 235.271 81.1597H235.271L234.397 109.46L227.377 118.48C227.377 118.48 227.318 118.48 279.811 118.48C279.811 118.48 279.774 118.571 273.432 109.435Z" fill="#E6E6E6"/>
<path opacity="0.2" d="M255.575 115.298C261.961 115.298 267.137 114.898 267.137 114.405C267.137 113.912 261.961 113.512 255.575 113.512C249.189 113.512 244.012 113.912 244.012 114.405C244.012 114.898 249.189 115.298 255.575 115.298Z" fill="black"/>
<path opacity="0.2" d="M235.271 81.1595L273.432 82.2753L273.448 81.0908L235.271 81.1595Z" fill="black"/>
<path d="M262.843 91.0933V94.5758C262.843 94.6079 262.83 94.6388 262.808 94.6615C262.785 94.6843 262.754 94.6971 262.722 94.6972H262.636V112.839C262.636 113.341 262.437 113.822 262.084 114.177C261.73 114.532 261.251 114.732 260.751 114.732H249.46C249.212 114.732 248.967 114.683 248.738 114.588C248.51 114.492 248.302 114.353 248.127 114.177C247.952 114.001 247.813 113.793 247.718 113.563C247.623 113.333 247.575 113.087 247.575 112.839V95.3335H247.512C247.49 95.3335 247.468 95.3245 247.452 95.3085C247.436 95.2925 247.427 95.2708 247.427 95.2481V93.2661C247.427 93.2548 247.429 93.2437 247.433 93.2332C247.438 93.2228 247.444 93.2134 247.452 93.2054C247.46 93.1974 247.469 93.1911 247.48 93.1868C247.49 93.1824 247.501 93.1802 247.512 93.1802H247.575V92.4337H247.512C247.488 92.4336 247.465 92.424 247.449 92.4071C247.432 92.3902 247.423 92.3674 247.423 92.3435V90.3886C247.423 90.3648 247.432 90.3421 247.449 90.3253C247.466 90.3085 247.488 90.299 247.512 90.299H247.575V89.2799H247.511C247.5 89.2799 247.49 89.2779 247.48 89.2739C247.471 89.2699 247.462 89.264 247.455 89.2566C247.447 89.2492 247.442 89.2405 247.438 89.2308C247.434 89.2212 247.432 89.2108 247.432 89.2004V88.1335C247.432 88.1124 247.44 88.0921 247.455 88.0771C247.47 88.0621 247.49 88.0536 247.511 88.0535H247.575V85.8933C247.575 85.3915 247.773 84.9101 248.127 84.5553C248.48 84.2004 248.96 84.001 249.46 84.001H260.751C261.251 84.001 261.73 84.2003 262.084 84.5552C262.437 84.9101 262.636 85.3914 262.636 85.8933V90.9718H262.722C262.754 90.9719 262.785 90.9847 262.808 91.0075C262.83 91.0302 262.843 91.0611 262.843 91.0933Z" fill="#3F3D56"/>
<path d="M255.649 84.9717H253.814C253.74 84.9717 253.68 85.032 253.68 85.1065V85.2657C253.68 85.3401 253.74 85.4004 253.814 85.4004H255.649C255.723 85.4004 255.783 85.3401 255.783 85.2657V85.1065C255.783 85.032 255.723 84.9717 255.649 84.9717Z" fill="#E6E8EC"/>
<path d="M256.344 85.4297C256.477 85.4297 256.586 85.3209 256.586 85.1866C256.586 85.0522 256.477 84.9434 256.344 84.9434C256.21 84.9434 256.101 85.0522 256.101 85.1866C256.101 85.3209 256.21 85.4297 256.344 85.4297Z" fill="#E6E8EC"/>
<path d="M261.733 86.2674V112.995C261.733 113.314 261.607 113.619 261.383 113.844C261.158 114.069 260.854 114.196 260.537 114.196H249.729C249.572 114.196 249.416 114.165 249.271 114.105C249.126 114.045 248.994 113.956 248.882 113.845C248.771 113.733 248.683 113.601 248.623 113.455C248.563 113.309 248.532 113.153 248.532 112.995V86.2674C248.532 86.1097 248.563 85.9535 248.624 85.8078C248.684 85.6621 248.772 85.5297 248.883 85.4181C248.994 85.3066 249.126 85.2182 249.271 85.1578C249.416 85.0975 249.572 85.0664 249.729 85.0664H251.346V85.2748C251.346 85.537 251.45 85.7886 251.635 85.974C251.82 86.1595 252.07 86.2636 252.331 86.2637H257.828C258.089 86.2636 258.34 86.1595 258.525 85.974C258.709 85.7886 258.813 85.537 258.813 85.2748V85.0664H260.537C260.694 85.0664 260.85 85.0974 260.995 85.1577C261.14 85.2181 261.272 85.3065 261.383 85.418C261.494 85.5296 261.582 85.662 261.642 85.8077C261.702 85.9534 261.733 86.1096 261.733 86.2674Z" fill="white"/>
<path d="M260.648 102.663H249.662V104.095H260.648V102.663Z" fill="#E6E6E6"/>
<path d="M260.648 105.208H249.662V106.64H260.648V105.208Z" fill="#E6E6E6"/>
<path d="M260.648 107.753H249.662V109.185H260.648V107.753Z" fill="#E6E6E6"/>
<path d="M260.625 92.377H249.64V99.694H260.625V92.377Z" fill="#E6E6E6"/>
<path d="M234.613 82.208L228.98 82.2431C228.98 82.2431 219.707 87.1963 226.216 97.4539C226.216 97.4539 228.875 96.8216 231.814 98.9996C231.814 98.9996 233.529 82.5944 234.613 82.208Z" fill="#1C6DE8"/>
<path opacity="0.2" d="M232.938 82.2595C231.928 86.492 230.787 97.4085 230.787 97.4085C228.161 95.4626 225.761 95.7598 225.278 95.8453C225.563 96.4107 225.876 96.9613 226.216 97.4949C226.216 97.4949 228.875 96.8626 231.814 99.0406C231.814 99.0406 233.529 82.6354 234.613 82.249L232.938 82.2595Z" fill="black"/>
<path d="M226.181 87.5124L225.691 89.9012L219.535 88.7778L219.532 88.7771L219.393 85.9668H220.582L226.181 87.5124Z" fill="#3F3D56"/>
<path opacity="0.2" d="M220.483 85.9668L219.535 88.7778L219.532 88.7771L219.393 85.9668H220.483Z" fill="black"/>
<path d="M225.971 90.182C226.357 90.182 226.671 89.4586 226.671 88.5661C226.671 87.6737 226.357 86.9502 225.971 86.9502C225.584 86.9502 225.271 87.6737 225.271 88.5661C225.271 89.4586 225.584 90.182 225.971 90.182Z" fill="black"/>
<path d="M222.332 122.715C222.304 122.715 222.276 122.71 222.25 122.699C222.224 122.688 222.2 122.673 222.18 122.653C222.161 122.633 222.145 122.609 222.134 122.583C222.123 122.557 222.118 122.529 222.118 122.501V88.5663C222.118 88.5094 222.14 88.4547 222.18 88.4145C222.221 88.3742 222.275 88.3516 222.332 88.3516C222.388 88.3516 222.443 88.3742 222.483 88.4145C222.523 88.4547 222.546 88.5094 222.546 88.5663V122.501C222.546 122.529 222.54 122.557 222.529 122.583C222.519 122.609 222.503 122.633 222.483 122.653C222.463 122.673 222.44 122.688 222.414 122.699C222.388 122.71 222.36 122.715 222.332 122.715Z" fill="#3F3D56"/>
<path d="M225.271 128.688C225.221 128.688 225.173 128.67 225.135 128.639C225.097 128.607 225.071 128.563 225.061 128.514L222.122 113.387C222.112 113.338 222.12 113.287 222.144 113.243C222.167 113.2 222.205 113.165 222.251 113.147C222.297 113.128 222.348 113.126 222.395 113.141C222.443 113.155 222.483 113.186 222.511 113.228L230.279 125.123C230.31 125.171 230.321 125.229 230.309 125.285C230.298 125.341 230.264 125.389 230.217 125.421C230.169 125.452 230.112 125.463 230.056 125.451C230.001 125.44 229.952 125.406 229.921 125.359L222.75 114.378L225.481 128.432C225.486 128.459 225.486 128.488 225.481 128.516C225.475 128.543 225.464 128.57 225.448 128.593C225.433 128.616 225.413 128.636 225.389 128.652C225.366 128.668 225.339 128.678 225.312 128.684C225.298 128.686 225.285 128.688 225.271 128.688Z" fill="#3F3D56"/>
<path d="M214.214 126.018C214.175 126.018 214.137 126.007 214.104 125.988C214.071 125.968 214.044 125.939 214.026 125.905C214.007 125.871 213.999 125.833 214 125.794C214.002 125.755 214.014 125.718 214.035 125.686L222.153 113.25C222.184 113.203 222.233 113.169 222.288 113.158C222.344 113.146 222.401 113.157 222.449 113.188C222.496 113.22 222.529 113.268 222.541 113.324C222.552 113.38 222.542 113.438 222.511 113.485L214.393 125.921C214.373 125.951 214.347 125.975 214.316 125.992C214.284 126.009 214.249 126.018 214.214 126.018Z" fill="#3F3D56"/>
<path d="M273.387 82.208L279.02 82.2431C279.02 82.2431 288.293 87.1963 281.784 97.4539C281.784 97.4539 279.125 96.8216 276.186 98.9996C276.186 98.9996 274.471 82.5944 273.387 82.208Z" fill="#1C6DE8"/>
<path opacity="0.2" d="M275.062 82.2595C276.072 86.492 277.213 97.4085 277.213 97.4085C279.839 95.4626 282.239 95.7598 282.722 95.8453C282.437 96.4107 282.124 96.9613 281.784 97.4949C281.784 97.4949 279.125 96.8626 276.186 99.0406C276.186 99.0406 274.471 82.6354 273.387 82.249L275.062 82.2595Z" fill="black"/>
<path d="M281.819 87.5124L282.309 89.9012L288.465 88.7778L288.467 88.7771L288.607 85.9668H287.418L281.819 87.5124Z" fill="#3F3D56"/>
<path opacity="0.2" d="M287.517 85.9668L288.465 88.7778L288.468 88.7771L288.607 85.9668H287.517Z" fill="black"/>
<path d="M282.029 90.182C282.416 90.182 282.729 89.4586 282.729 88.5661C282.729 87.6737 282.416 86.9502 282.029 86.9502C281.643 86.9502 281.329 87.6737 281.329 88.5661C281.329 89.4586 281.643 90.182 282.029 90.182Z" fill="#3F3D56"/>
<path d="M285.668 122.715C285.64 122.715 285.612 122.71 285.586 122.699C285.56 122.688 285.537 122.673 285.517 122.653C285.497 122.633 285.481 122.609 285.471 122.583C285.46 122.557 285.454 122.529 285.454 122.501V88.5663C285.454 88.5094 285.477 88.4547 285.517 88.4145C285.557 88.3742 285.612 88.3516 285.668 88.3516C285.725 88.3516 285.779 88.3742 285.819 88.4145C285.86 88.4547 285.882 88.5094 285.882 88.5663V122.501C285.882 122.529 285.877 122.557 285.866 122.583C285.855 122.609 285.839 122.633 285.82 122.653C285.8 122.673 285.776 122.688 285.75 122.699C285.724 122.71 285.696 122.715 285.668 122.715Z" fill="#3F3D56"/>
<path d="M282.729 128.688C282.716 128.688 282.702 128.686 282.688 128.684C282.632 128.673 282.583 128.64 282.552 128.593C282.52 128.546 282.508 128.488 282.519 128.432L285.25 114.378L278.079 125.359C278.064 125.382 278.044 125.403 278.021 125.419C277.998 125.434 277.971 125.446 277.944 125.451C277.916 125.457 277.888 125.457 277.86 125.452C277.833 125.447 277.807 125.436 277.783 125.421C277.76 125.405 277.739 125.385 277.724 125.362C277.708 125.339 277.697 125.312 277.691 125.285C277.685 125.257 277.685 125.229 277.69 125.201C277.695 125.173 277.706 125.147 277.722 125.123L285.489 113.228C285.517 113.186 285.557 113.155 285.605 113.141C285.652 113.126 285.703 113.128 285.749 113.147C285.795 113.165 285.833 113.2 285.856 113.243C285.88 113.287 285.888 113.338 285.878 113.387L282.939 128.514C282.93 128.563 282.903 128.607 282.865 128.639C282.827 128.67 282.779 128.688 282.729 128.688Z" fill="#3F3D56"/>
<path d="M293.786 126.018C293.751 126.018 293.716 126.009 293.684 125.992C293.653 125.975 293.627 125.951 293.607 125.921L285.489 113.485C285.458 113.438 285.448 113.38 285.459 113.324C285.471 113.268 285.504 113.22 285.551 113.188C285.599 113.157 285.656 113.146 285.712 113.158C285.767 113.169 285.816 113.203 285.847 113.25L293.965 125.686C293.986 125.718 293.998 125.755 294 125.794C294.001 125.833 293.993 125.871 293.974 125.905C293.956 125.939 293.929 125.968 293.896 125.988C293.863 126.007 293.825 126.018 293.786 126.018Z" fill="#3F3D56"/>
<path d="M249.124 107.82L250.657 107.392C250.657 107.392 251.257 107.271 250.89 106.094C250.524 104.917 249.796 105.247 249.796 105.247L248.437 105.643L247.9 105.809L248.655 106.873L248.718 107.582L249.124 107.82Z" fill="#3F3D56"/>
<path d="M246.163 104.71L245.682 106.638L248.146 109.035L248.358 109.089L248.923 108.929L249.404 107.001L248.917 106.487L249.414 106.356L248.352 105.32L247.798 105.437L247.353 104.994L247.653 104.873L247.681 104.76L247.318 104.473L246.163 104.71Z" fill="#3F3D56"/>
<path d="M248.471 107.43L248.153 108.706L246.685 107.312L247.052 106.019L248.471 107.43Z" fill="#1E6CB4"/>
<path d="M246.163 104.71L246.096 104.98L248.545 107.373L248.757 107.426L249.305 107.277L249.335 107.277L249.404 107.001L248.917 106.487L249.414 106.356L248.352 105.32L247.798 105.437L247.353 104.994L247.653 104.873L247.681 104.76L247.318 104.473L246.163 104.71Z" stroke="#3F3D56" stroke-miterlimit="10"/>
<path d="M247.492 104.735C247.511 104.661 247.437 104.578 247.328 104.551C247.219 104.523 247.116 104.561 247.097 104.636C247.078 104.71 247.152 104.793 247.261 104.82C247.37 104.848 247.474 104.81 247.492 104.735Z" fill="#1C6DE8"/>
<path d="M249.049 106.8C249.067 106.725 248.994 106.643 248.885 106.615C248.776 106.588 248.672 106.626 248.653 106.7C248.635 106.775 248.708 106.857 248.818 106.885C248.927 106.912 249.03 106.874 249.049 106.8Z" fill="#1C6DE8"/>
<path d="M250.143 110.222L249.808 109.081C249.808 109.081 250.677 107.001 249.675 106.799C248.672 106.598 248.605 108.746 248.605 108.746L249.006 110.021L250.143 110.222Z" fill="#A6775B"/>
<path d="M243.937 108.004C245.404 108.004 246.593 106.811 246.593 105.339C246.593 103.866 245.404 102.673 243.937 102.673C242.471 102.673 241.282 103.866 241.282 105.339C241.282 106.811 242.471 108.004 243.937 108.004Z" fill="#A6775B"/>
<path d="M244.796 107.22C244.796 107.22 244.953 109.181 245.343 109.337C245.734 109.494 241.126 110.592 241.126 110.592L242.297 109.259C242.297 109.259 242.532 107.22 241.985 106.75L244.796 107.22Z" fill="#A6775B"/>
<path d="M248.538 109.619L249.608 109.484C249.608 109.484 250.878 110.155 250.878 111.028C250.878 111.9 251.613 113.31 251.613 113.31C251.613 113.31 252.148 115.189 250.945 115.323C249.742 115.457 248.672 113.31 248.672 113.31L248.538 109.619Z" fill="#F29A2E"/>
<path d="M249.14 120.288C249.14 120.288 251.48 118.074 252.148 118.208C252.816 118.342 254.153 118.544 254.153 119.55C254.153 120.557 251.947 122.906 251.947 122.906C251.947 122.906 250.276 126.597 248.672 126.731C247.617 126.827 246.568 126.984 245.53 127.201C245.53 127.201 246.266 129.885 245.865 130.623C245.464 131.361 243.926 132.234 243.792 132.167C243.659 132.099 241.787 130.355 240.985 127.872C240.183 125.389 239.648 123.51 240.383 123.375C241.119 123.241 249.14 120.288 249.14 120.288Z" fill="#2F2E41"/>
<path d="M253.953 119.349C253.953 119.349 254.421 119.282 254.354 120.423C254.287 121.564 254.087 125.658 253.752 126.463C253.418 127.268 253.351 128.208 253.485 128.543C253.619 128.879 253.886 129.416 253.418 129.483C252.95 129.55 251.012 129.281 250.811 129.214C250.611 129.147 250.41 128.006 250.544 128.006C250.677 128.006 251.012 127.939 250.878 127.469C250.744 127 250.677 127 250.878 126.866C251.078 126.731 251.613 126.53 251.48 126.396C251.346 126.262 251.212 123.107 251.212 123.107L253.953 119.349Z" fill="#2F2E41"/>
<path d="M253.284 129.281C253.284 129.281 254.421 128.945 254.554 129.684C254.554 129.684 254.755 130.824 253.886 131.227C253.325 131.493 252.788 131.807 252.282 132.167C252.282 132.167 250.878 132.703 250.811 132.032C250.744 131.361 251.078 128.945 251.078 128.945L253.284 129.281Z" fill="#2F2E41"/>
<path d="M245.731 130.087L243.592 128.342C243.592 128.342 243.993 130.489 243.458 130.892L243.214 131.609L243.898 132.171C243.898 132.171 245.998 131.831 245.731 130.087Z" fill="#2F2E41"/>
<path d="M242.723 127.134C242.723 127.134 244.127 127.536 243.926 128.946C243.726 130.355 243.468 131.886 243.468 131.886C243.468 131.886 243.391 135.657 242.389 135.925C241.386 136.193 241.119 135.657 241.119 135.657C241.119 135.657 239.979 132.71 240.317 131.831C240.725 130.768 241.314 129.573 241.119 129.214C240.926 128.861 241.252 126.933 242.723 127.134Z" fill="#2F2E41"/>
<path d="M241.921 108.612C241.921 108.612 242.456 108.679 243.325 108.813C244.194 108.947 244.795 108.276 245.263 108.41C245.731 108.545 249.608 109.484 249.608 109.484L249.006 114.115C249.006 114.115 249.742 119.483 249.608 120.423C249.474 121.362 251.212 121.228 250.21 122.369C249.207 123.51 247.469 124.516 243.926 124.181C240.383 123.845 239.915 123.912 239.915 123.376C239.915 122.839 240.718 118.275 240.45 117.873C240.183 117.47 239.648 117 239.915 116.531C240.183 116.061 240.45 115.792 240.049 115.39C239.648 114.987 239.448 114.584 239.448 114.383C239.448 114.182 238.512 110.893 238.512 110.893C238.512 110.893 238.913 109.283 239.381 109.216C239.849 109.149 240.25 108.813 240.584 108.813C240.918 108.813 241.119 108.88 241.319 108.813L241.921 108.612Z" fill="#1E6CB4"/>
<path d="M248.331 104.404C248.297 104.249 248.128 103.73 247.786 103.603C247.536 103.511 247.07 103.706 246.838 103.674L246.808 103.589C246.788 103.421 246.746 103.256 246.684 103.099C246.561 102.785 246.376 102.498 246.141 102.258C245.906 102.017 245.624 101.826 245.314 101.697C244.549 101.376 243.34 101.111 242.291 101.951C240.851 103.106 241.105 104.834 241.209 105.313C241.227 105.393 241.242 105.473 241.254 105.554C241.319 105.976 241.505 106.027 241.505 106.027C241.505 106.027 241.501 106.015 241.494 105.992L242.796 106.12L243.499 105.999C243.511 106.068 243.515 106.109 243.515 106.109C245.568 105.794 246.763 104.708 246.957 104.52C247.128 104.634 247.445 104.819 247.753 104.86C248.205 104.919 248.365 104.559 248.331 104.404ZM243.041 105.442L241.388 105.381C241.364 104.928 241.481 104.398 242.146 104.371C242.786 104.345 243.136 104.868 243.321 105.347L243.041 105.442Z" fill="#2F2E41"/>
<path d="M243.473 101.567C243.632 101.54 243.753 101.469 243.743 101.408C243.733 101.348 243.595 101.321 243.436 101.348C243.277 101.375 243.156 101.446 243.166 101.507C243.177 101.567 243.314 101.594 243.473 101.567Z" fill="#2F2E41"/>
<g clip-path="url(#clip2_0_1)">
<path d="M615.117 187.592L283.569 93.835L281.529 101.048L613.077 194.805L615.117 187.592Z" fill="#FB63FF"/>
</g>
</g>
<g clip-path="url(#clip3_0_1)">
<path d="M315.478 189.92C295.246 188.043 271.118 168.931 272.346 149.253C273.575 129.575 296.943 111.256 317.175 113.133C337.408 115.01 349.054 151.785 347.826 171.464C346.597 191.142 335.711 191.797 315.478 189.92Z" fill="#F2F2F2"/>
<path d="M317.175 193.08C340.5 193.08 359.409 191.668 359.409 189.926C359.409 188.184 340.5 186.771 317.175 186.771C293.85 186.771 274.941 188.184 274.941 189.926C274.941 191.668 293.85 193.08 317.175 193.08Z" fill="#3F3D56"/>
<path opacity="0.1" d="M317.175 191.961C337.043 191.961 353.149 191.027 353.149 189.875C353.149 188.723 337.043 187.789 317.175 187.789C297.307 187.789 281.201 188.723 281.201 189.875C281.201 191.027 297.307 191.961 317.175 191.961Z" fill="black"/>
<path d="M287.711 200C297.493 200 305.422 199.157 305.422 198.118C305.422 197.078 297.493 196.235 287.711 196.235C277.93 196.235 270 197.078 270 198.118C270 199.157 277.93 200 287.711 200Z" fill="#3F3D56"/>
<path opacity="0.1" d="M287.711 199.332C296.043 199.332 302.797 198.775 302.797 198.088C302.797 197.4 296.043 196.843 287.711 196.843C279.379 196.843 272.625 197.4 272.625 198.088C272.625 198.775 279.379 199.332 287.711 199.332Z" fill="black"/>
<path d="M349.143 129.484H286.376V189.519H349.143V129.484Z" fill="#3F3D56"/>
<path d="M317.045 137.689H301.561C301.536 137.689 301.511 137.683 301.489 137.671C301.466 137.66 301.445 137.643 301.427 137.622C301.41 137.6 301.396 137.575 301.387 137.547C301.377 137.52 301.372 137.49 301.372 137.46C301.372 137.429 301.377 137.4 301.387 137.372C301.396 137.344 301.41 137.319 301.427 137.297C301.445 137.276 301.466 137.259 301.489 137.248C301.511 137.236 301.536 137.23 301.561 137.23H317.045C317.095 137.231 317.143 137.255 317.178 137.298C317.213 137.341 317.233 137.399 317.233 137.46C317.233 137.52 317.213 137.578 317.178 137.621C317.143 137.664 317.095 137.689 317.045 137.689Z" fill="#F2F2F2"/>
<path d="M333.996 140.208H309.641C309.591 140.208 309.544 140.184 309.508 140.141C309.473 140.098 309.453 140.04 309.453 139.979C309.453 139.918 309.473 139.86 309.508 139.817C309.544 139.774 309.591 139.75 309.641 139.75H333.996C334.02 139.75 334.045 139.756 334.068 139.767C334.09 139.779 334.111 139.796 334.128 139.817C334.146 139.838 334.16 139.864 334.169 139.891C334.179 139.919 334.184 139.949 334.184 139.979C334.184 140.009 334.179 140.039 334.169 140.067C334.16 140.095 334.146 140.12 334.128 140.141C334.111 140.162 334.09 140.179 334.068 140.191C334.045 140.202 334.02 140.208 333.996 140.208Z" fill="#F2F2F2"/>
<path d="M317.12 142.729H301.636C301.586 142.729 301.538 142.705 301.503 142.662C301.468 142.619 301.448 142.56 301.448 142.5C301.448 142.439 301.468 142.381 301.503 142.338C301.538 142.295 301.586 142.271 301.636 142.271H317.12C317.17 142.271 317.218 142.295 317.253 142.338C317.288 142.381 317.308 142.439 317.308 142.5C317.308 142.56 317.288 142.619 317.253 142.662C317.218 142.705 317.17 142.729 317.12 142.729Z" fill="#F2F2F2"/>
<path d="M333.996 142.775H318.511C318.461 142.775 318.413 142.75 318.378 142.707C318.343 142.665 318.323 142.606 318.323 142.545C318.323 142.485 318.343 142.426 318.378 142.384C318.413 142.341 318.461 142.316 318.511 142.316H333.996C334.045 142.316 334.093 142.341 334.128 142.384C334.164 142.426 334.184 142.485 334.184 142.545C334.184 142.606 334.164 142.665 334.128 142.707C334.093 142.75 334.045 142.775 333.996 142.775Z" fill="#F2F2F2"/>
<path d="M317.158 145.248H301.673C301.623 145.248 301.576 145.224 301.54 145.181C301.505 145.138 301.485 145.08 301.485 145.019C301.485 144.958 301.505 144.9 301.54 144.857C301.576 144.814 301.623 144.79 301.673 144.79H317.158C317.208 144.79 317.256 144.814 317.291 144.857C317.326 144.9 317.346 144.958 317.346 145.019C317.346 145.08 317.326 145.138 317.291 145.181C317.256 145.224 317.208 145.248 317.158 145.248Z" fill="#F2F2F2"/>
<path d="M317.196 147.769H301.711C301.661 147.769 301.613 147.745 301.578 147.702C301.543 147.659 301.523 147.6 301.523 147.54C301.523 147.479 301.543 147.421 301.578 147.378C301.613 147.335 301.661 147.311 301.711 147.311H317.196C317.245 147.311 317.293 147.335 317.328 147.378C317.364 147.421 317.383 147.479 317.383 147.54C317.383 147.6 317.364 147.659 317.328 147.702C317.293 147.745 317.245 147.769 317.196 147.769Z" fill="#F2F2F2"/>
<path d="M324.224 137.735H319.789C319.739 137.735 319.691 137.71 319.656 137.667C319.621 137.624 319.601 137.566 319.601 137.505C319.601 137.445 319.621 137.386 319.656 137.343C319.691 137.301 319.739 137.276 319.789 137.276H324.224C324.274 137.276 324.321 137.301 324.357 137.343C324.392 137.386 324.412 137.445 324.412 137.505C324.412 137.566 324.392 137.624 324.357 137.667C324.321 137.71 324.274 137.735 324.224 137.735Z" fill="#F2F2F2"/>
<path d="M324.224 145.248H319.789C319.739 145.248 319.691 145.224 319.656 145.181C319.621 145.138 319.601 145.08 319.601 145.019C319.601 144.958 319.621 144.9 319.656 144.857C319.691 144.814 319.739 144.79 319.789 144.79H324.224C324.274 144.79 324.321 144.814 324.357 144.857C324.392 144.9 324.412 144.958 324.412 145.019C324.412 145.08 324.392 145.138 324.357 145.181C324.321 145.224 324.274 145.248 324.224 145.248Z" fill="#F2F2F2"/>
<path d="M324.224 147.723H319.789C319.764 147.723 319.74 147.717 319.717 147.706C319.694 147.694 319.673 147.677 319.656 147.656C319.638 147.635 319.624 147.609 319.615 147.582C319.605 147.554 319.6 147.524 319.6 147.494C319.6 147.464 319.605 147.434 319.615 147.406C319.624 147.378 319.638 147.353 319.656 147.332C319.673 147.31 319.694 147.293 319.717 147.282C319.74 147.27 319.764 147.265 319.789 147.265H324.224C324.248 147.265 324.273 147.27 324.296 147.282C324.319 147.293 324.339 147.31 324.357 147.332C324.374 147.353 324.388 147.378 324.398 147.406C324.407 147.434 324.412 147.464 324.412 147.494C324.412 147.524 324.407 147.554 324.398 147.582C324.388 147.609 324.374 147.635 324.357 147.656C324.339 147.677 324.319 147.694 324.296 147.706C324.273 147.717 324.248 147.723 324.224 147.723Z" fill="#F2F2F2"/>
<path d="M331.665 147.723H327.23C327.181 147.723 327.133 147.699 327.098 147.656C327.063 147.613 327.043 147.554 327.043 147.494C327.043 147.433 327.063 147.375 327.098 147.332C327.133 147.289 327.181 147.265 327.23 147.265H331.665C331.69 147.265 331.715 147.27 331.737 147.282C331.76 147.293 331.781 147.31 331.798 147.332C331.816 147.353 331.83 147.378 331.839 147.406C331.849 147.434 331.854 147.464 331.854 147.494C331.854 147.524 331.849 147.554 331.839 147.582C331.83 147.609 331.816 147.635 331.798 147.656C331.781 147.677 331.76 147.694 331.737 147.706C331.715 147.717 331.69 147.723 331.665 147.723Z" fill="#F2F2F2"/>
<path d="M305.958 140.208H301.523C301.473 140.208 301.425 140.184 301.39 140.141C301.355 140.098 301.335 140.04 301.335 139.979C301.335 139.918 301.355 139.86 301.39 139.817C301.425 139.774 301.473 139.75 301.523 139.75H305.958C306.008 139.75 306.056 139.774 306.091 139.817C306.126 139.86 306.146 139.918 306.146 139.979C306.146 140.04 306.126 140.098 306.091 140.141C306.056 140.184 306.008 140.208 305.958 140.208Z" fill="#F2F2F2"/>
<path d="M317.064 174.802H301.579C301.529 174.802 301.482 174.778 301.446 174.735C301.411 174.692 301.391 174.634 301.391 174.573C301.391 174.512 301.411 174.454 301.446 174.411C301.482 174.368 301.529 174.344 301.579 174.344H317.064C317.114 174.344 317.162 174.368 317.197 174.411C317.232 174.454 317.252 174.512 317.252 174.573C317.252 174.634 317.232 174.692 317.197 174.735C317.162 174.778 317.114 174.802 317.064 174.802Z" fill="#F2F2F2"/>
<path d="M316.989 179.842H301.504C301.454 179.842 301.407 179.818 301.371 179.775C301.336 179.732 301.316 179.674 301.316 179.613C301.316 179.552 301.336 179.494 301.371 179.451C301.407 179.408 301.454 179.384 301.504 179.384H316.989C317.039 179.384 317.086 179.408 317.122 179.451C317.157 179.494 317.177 179.552 317.177 179.613C317.177 179.674 317.157 179.732 317.122 179.775C317.086 179.818 317.039 179.842 316.989 179.842Z" fill="#F2F2F2"/>
<path d="M317.026 182.362H301.542C301.517 182.362 301.493 182.356 301.47 182.344C301.447 182.333 301.426 182.316 301.409 182.295C301.391 182.273 301.377 182.248 301.368 182.22C301.358 182.192 301.353 182.163 301.353 182.132C301.353 182.102 301.358 182.072 301.368 182.045C301.377 182.017 301.391 181.992 301.409 181.97C301.426 181.949 301.447 181.932 301.47 181.921C301.493 181.909 301.517 181.903 301.542 181.903H317.026C317.051 181.903 317.076 181.909 317.098 181.921C317.121 181.932 317.142 181.949 317.16 181.97C317.177 181.992 317.191 182.017 317.2 182.045C317.21 182.072 317.215 182.102 317.215 182.132C317.215 182.163 317.21 182.192 317.2 182.22C317.191 182.248 317.177 182.273 317.16 182.295C317.142 182.316 317.121 182.333 317.098 182.344C317.076 182.356 317.051 182.362 317.026 182.362Z" fill="#F2F2F2"/>
<path d="M323.641 179.888H319.206C319.156 179.888 319.109 179.864 319.073 179.821C319.038 179.778 319.018 179.72 319.018 179.659C319.018 179.598 319.038 179.54 319.073 179.497C319.109 179.454 319.156 179.43 319.206 179.43H323.641C323.691 179.43 323.739 179.454 323.774 179.497C323.809 179.54 323.829 179.598 323.829 179.659C323.829 179.72 323.809 179.778 323.774 179.821C323.739 179.864 323.691 179.888 323.641 179.888Z" fill="#F2F2F2"/>
<path d="M323.641 182.362H319.206C319.156 182.362 319.109 182.337 319.073 182.294C319.038 182.251 319.018 182.193 319.018 182.132C319.018 182.072 319.038 182.013 319.073 181.97C319.109 181.927 319.156 181.903 319.206 181.903H323.641C323.691 181.903 323.739 181.927 323.774 181.97C323.809 182.013 323.829 182.072 323.829 182.132C323.829 182.193 323.809 182.251 323.774 182.294C323.739 182.337 323.691 182.362 323.641 182.362Z" fill="#F2F2F2"/>
<path d="M331.083 179.888H326.648C326.598 179.888 326.55 179.864 326.515 179.821C326.48 179.778 326.46 179.72 326.46 179.659C326.46 179.598 326.48 179.54 326.515 179.497C326.55 179.454 326.598 179.43 326.648 179.43H331.083C331.133 179.43 331.18 179.454 331.216 179.497C331.251 179.54 331.271 179.598 331.271 179.659C331.271 179.72 331.251 179.778 331.216 179.821C331.18 179.864 331.133 179.888 331.083 179.888Z" fill="#F2F2F2"/>
<path d="M334.014 177.321H309.66C309.61 177.321 309.562 177.297 309.527 177.254C309.492 177.211 309.472 177.153 309.472 177.092C309.472 177.032 309.492 176.973 309.527 176.93C309.562 176.887 309.61 176.863 309.66 176.863H334.014C334.064 176.863 334.112 176.887 334.147 176.93C334.182 176.973 334.202 177.032 334.202 177.092C334.202 177.153 334.182 177.211 334.147 177.254C334.112 177.297 334.064 177.321 334.014 177.321Z" fill="#F2F2F2"/>
<path d="M305.977 177.321H301.542C301.492 177.321 301.444 177.297 301.409 177.254C301.374 177.211 301.354 177.153 301.354 177.092C301.354 177.032 301.374 176.973 301.409 176.93C301.444 176.887 301.492 176.863 301.542 176.863H305.977C306.027 176.863 306.074 176.887 306.11 176.93C306.145 176.973 306.165 177.032 306.165 177.092C306.165 177.153 306.145 177.211 306.11 177.254C306.074 177.297 306.027 177.321 305.977 177.321Z" fill="#F2F2F2"/>
<path d="M334.014 184.928H309.66C309.635 184.928 309.611 184.922 309.588 184.911C309.565 184.899 309.544 184.882 309.527 184.861C309.509 184.84 309.495 184.814 309.486 184.787C309.476 184.759 309.472 184.729 309.472 184.699C309.472 184.669 309.476 184.639 309.486 184.611C309.495 184.583 309.509 184.558 309.527 184.537C309.544 184.515 309.565 184.499 309.588 184.487C309.611 184.476 309.635 184.47 309.66 184.47H334.014C334.064 184.47 334.112 184.494 334.147 184.537C334.182 184.58 334.202 184.638 334.202 184.699C334.202 184.76 334.182 184.818 334.147 184.861C334.112 184.904 334.064 184.928 334.014 184.928Z" fill="#F2F2F2"/>
<path d="M305.977 184.928H301.542C301.517 184.928 301.493 184.922 301.47 184.911C301.447 184.899 301.426 184.882 301.409 184.861C301.391 184.84 301.377 184.814 301.368 184.787C301.358 184.759 301.353 184.729 301.353 184.699C301.353 184.669 301.358 184.639 301.368 184.611C301.377 184.583 301.391 184.558 301.409 184.537C301.426 184.515 301.447 184.499 301.47 184.487C301.493 184.476 301.517 184.47 301.542 184.47H305.977C306.001 184.47 306.026 184.476 306.049 184.487C306.072 184.499 306.092 184.515 306.11 184.537C306.127 184.558 306.141 184.583 306.151 184.611C306.16 184.639 306.165 184.669 306.165 184.699C306.165 184.729 306.16 184.759 306.151 184.787C306.141 184.814 306.127 184.84 306.11 184.861C306.092 184.882 306.072 184.899 306.049 184.911C306.026 184.922 306.001 184.928 305.977 184.928Z" fill="#F2F2F2"/>
<path d="M313.324 153.816L307.311 161.056L313.324 168.295L314.677 166.646L310.13 161.102L314.715 155.512L313.324 153.816Z" fill="#9002D2"/>
<path d="M322.194 153.816L328.208 161.056L322.194 168.295L320.841 166.646L325.389 161.102L320.804 155.512L322.194 153.816Z" fill="#9002D2"/>
<path d="M288.045 131.926C288.46 131.926 288.796 131.516 288.796 131.011C288.796 130.505 288.46 130.095 288.045 130.095C287.63 130.095 287.294 130.505 287.294 131.011C287.294 131.516 287.63 131.926 288.045 131.926Z" fill="#6C63FF"/>
<path d="M290.048 131.926C290.463 131.926 290.799 131.516 290.799 131.011C290.799 130.505 290.463 130.095 290.048 130.095C289.633 130.095 289.297 130.505 289.297 131.011C289.297 131.516 289.633 131.926 290.048 131.926Z" fill="#6C63FF"/>
<path d="M292.051 131.926C292.466 131.926 292.803 131.516 292.803 131.011C292.803 130.505 292.466 130.095 292.051 130.095C291.637 130.095 291.3 130.505 291.3 131.011C291.3 131.516 291.637 131.926 292.051 131.926Z" fill="#6C63FF"/>
<path opacity="0.1" d="M349.143 132.537H286.376V132.842H349.143V132.537Z" fill="black"/>
<path d="M364 174.811C364 181.3 360.836 183.566 356.932 183.566C353.029 183.566 349.865 181.3 349.865 174.811C349.865 168.322 356.932 160.067 356.932 160.067C356.932 160.067 364 168.322 364 174.811Z" fill="#F2F2F2"/>
<path d="M356.675 182.573L356.747 177.143L359.76 170.424L356.759 176.291L356.791 173.849L358.867 168.988L356.8 173.203L356.858 168.811L359.081 164.941L356.867 168.12L356.904 160.067L356.674 170.728L356.693 170.288L354.433 166.07L356.657 171.133L356.446 176.037L356.44 175.907L353.834 171.469L356.432 176.367L356.406 176.98L356.401 176.99L356.403 177.04L355.869 189.484H356.583L356.668 183.057L359.26 178.17L356.675 182.573Z" fill="#3F3D56"/>
<path d="M280.235 189.427C280.018 189.574 279.789 189.693 279.552 189.783C279.128 189.924 278.675 189.872 278.247 189.993C278.072 190.042 277.881 190.145 277.825 190.354C277.784 190.507 277.829 190.672 277.871 190.824C278.345 192.516 278.63 194.311 279.384 195.843C279.701 196.486 280.095 197.069 280.552 197.572C280.724 197.76 280.918 197.944 281.148 197.974C281.254 197.988 281.36 197.967 281.458 197.914C281.555 197.861 281.639 197.778 281.701 197.673C281.764 197.568 281.802 197.445 281.813 197.316C281.824 197.186 281.807 197.056 281.763 196.938C281.695 196.755 281.57 196.613 281.488 196.438C281.4 196.215 281.349 195.973 281.337 195.726C281.262 195.003 281.19 194.247 281.396 193.563C281.534 193.103 281.787 192.712 281.997 192.296C282.208 191.88 282.383 191.403 282.336 190.918C282.304 190.586 282.172 190.283 282.031 189.996C281.891 189.709 281.614 188.937 281.332 188.842C281.039 188.742 280.49 189.267 280.235 189.427Z" fill="#2F2E41"/>
<path d="M287.95 195.268C287.955 195.432 287.936 195.595 287.895 195.751C287.806 196.036 287.587 196.23 287.474 196.501C287.317 196.878 287.388 197.333 287.493 197.736C287.558 197.988 287.644 198.251 287.819 198.408C287.969 198.521 288.14 198.588 288.316 198.602C289.822 198.856 291.351 198.71 292.87 198.763C293.147 198.773 293.44 198.785 293.682 198.62C293.923 198.455 294.073 198.04 293.908 197.768C293.761 197.524 293.469 197.526 293.22 197.512C292.573 197.472 291.957 197.163 291.475 196.635C291.38 196.536 291.297 196.421 291.23 196.292C291.178 196.178 291.136 196.058 291.102 195.934C290.889 195.231 290.636 194.547 290.344 193.887C290.262 193.702 290.17 193.51 290.018 193.411C289.907 193.349 289.786 193.317 289.664 193.317C289.285 193.287 288.305 193.13 288.012 193.489C287.742 193.82 287.956 194.847 287.95 195.268Z" fill="#2F2E41"/>
<path d="M290.28 154.281C291.616 154.281 292.698 152.961 292.698 151.333C292.698 149.705 291.616 148.385 290.28 148.385C288.944 148.385 287.862 149.705 287.862 151.333C287.862 152.961 288.944 154.281 290.28 154.281Z" fill="#A6775B"/>
<path d="M288.096 153.768C287.952 154.237 287.708 154.678 287.353 154.931L290.698 155.763C290.577 155.168 290.561 154.548 290.651 153.945C290.684 153.799 290.691 153.645 290.671 153.496C290.608 153.2 290.335 153.058 290.091 152.99C289.48 152.82 288.94 152.729 288.373 152.4C288.2 152.762 288.224 153.351 288.096 153.768Z" fill="#A6775B"/>
<path d="M287.325 153.827C287.685 153.628 288.077 153.531 288.472 153.544C288.867 153.557 289.254 153.678 289.605 153.899C290.034 154.175 290.389 154.591 290.738 155.001C291.059 155.379 291.402 155.812 291.425 156.356C291.436 156.62 291.369 156.877 291.335 157.138C291.274 157.677 291.351 158.226 291.557 158.708C291.764 159.191 292.088 159.583 292.485 159.831C292.751 160.371 292.805 161.025 292.81 161.654C292.825 164.039 292.208 166.453 292.648 168.776C292.752 169.322 292.912 169.85 293.002 170.4C293.117 171.111 293.112 171.842 293.172 172.564C293.238 173.345 293.381 174.114 293.599 174.853C293.454 175.135 293.151 175.243 292.878 175.221C292.605 175.198 292.35 175.053 292.106 174.901C290.928 174.166 289.848 173.196 288.627 172.571C287.819 172.158 286.959 171.9 286.175 171.423C285.391 170.945 284.663 170.187 284.423 169.16C284.319 168.716 284.313 168.248 284.307 167.786C284.283 165.841 284.261 163.875 284.609 161.976C284.915 160.302 285.505 158.7 285.634 156.992C285.676 156.436 285.677 155.841 285.932 155.377C286.292 154.721 287.069 154.552 287.325 153.827Z" fill="#2F2E41"/>
<path d="M288.905 151.374C289.047 151.148 289.322 151.117 289.55 151.184C289.777 151.251 289.987 151.394 290.217 151.448C290.269 151.466 290.324 151.471 290.378 151.462C290.432 151.452 290.483 151.43 290.53 151.395C290.61 151.298 290.658 151.169 290.664 151.031C290.745 150.447 290.764 149.853 290.72 149.263C290.708 149.18 290.713 149.095 290.734 149.015C290.791 148.848 290.964 148.808 291.106 148.754C291.34 148.658 291.541 148.469 291.677 148.218C291.814 147.967 291.877 147.667 291.858 147.367C291.855 147.223 291.805 147.086 291.72 146.986C291.622 146.889 291.485 146.883 291.358 146.882C290.708 146.875 290.058 146.875 289.408 146.882C289.167 146.885 288.914 146.892 288.706 147.038C288.552 147.146 288.437 147.32 288.299 147.456C287.937 147.812 287.449 147.884 287.01 148.066C286.795 148.141 286.601 148.282 286.445 148.477C286.299 148.68 286.228 148.983 286.32 149.229C286.367 149.332 286.42 149.43 286.478 149.524C286.737 150.03 286.564 150.685 286.603 151.279C286.651 152.02 287.552 153.223 288.162 153.399C289.148 153.682 288.578 151.861 288.905 151.374Z" fill="#2F2E41"/>
<path d="M287.539 183.891C287.601 184.432 287.681 184.976 287.66 185.522C287.63 186.284 287.405 187.019 287.363 187.781C287.332 188.349 287.404 188.925 287.339 189.489C287.297 189.851 287.201 190.199 287.141 190.557C287.046 191.14 287.049 191.74 287.149 192.322C287.249 192.903 287.444 193.454 287.723 193.942C287.764 194.025 287.822 194.094 287.892 194.141C287.959 194.172 288.03 194.183 288.101 194.175C288.805 194.158 289.507 194.08 290.202 193.942C290.253 193.94 290.301 193.914 290.337 193.87C290.353 193.841 290.363 193.807 290.366 193.773C290.495 192.965 290.201 192.156 290.126 191.338C290.047 190.465 290.219 189.59 290.389 188.737C290.466 188.316 290.563 187.9 290.679 187.492C290.761 187.218 290.861 186.951 290.932 186.672C291.033 186.234 291.095 185.783 291.116 185.329C291.165 184.611 291.192 183.892 291.195 183.171C291.211 182.489 291.165 181.805 291.056 181.135C290.899 180.287 290.578 179.499 290.26 178.721C290.09 178.77 289.93 178.863 289.791 178.992C289.381 179.316 288.953 179.604 288.51 179.855C288.212 180.024 287.631 180.144 287.442 180.495C287.256 180.841 287.376 181.548 287.391 181.93C287.415 182.586 287.465 183.24 287.539 183.891Z" fill="#2F2E41"/>
<path opacity="0.1" d="M287.539 183.891C287.601 184.432 287.681 184.976 287.66 185.522C287.63 186.284 287.405 187.019 287.363 187.781C287.332 188.349 287.404 188.925 287.339 189.489C287.297 189.851 287.201 190.199 287.141 190.557C287.046 191.14 287.049 191.74 287.149 192.322C287.249 192.903 287.444 193.454 287.723 193.942C287.764 194.025 287.822 194.094 287.892 194.141C287.959 194.172 288.03 194.183 288.101 194.175C288.805 194.158 289.507 194.08 290.202 193.942C290.253 193.94 290.301 193.914 290.337 193.87C290.353 193.841 290.363 193.807 290.366 193.773C290.495 192.965 290.201 192.156 290.126 191.338C290.047 190.465 290.219 189.59 290.389 188.737C290.466 188.316 290.563 187.9 290.679 187.492C290.761 187.218 290.861 186.951 290.932 186.672C291.033 186.234 291.095 185.783 291.116 185.329C291.165 184.611 291.192 183.892 291.195 183.171C291.211 182.489 291.165 181.805 291.056 181.135C290.899 180.287 290.578 179.499 290.26 178.721C290.09 178.77 289.93 178.863 289.791 178.992C289.381 179.316 288.953 179.604 288.51 179.855C288.212 180.024 287.631 180.144 287.442 180.495C287.256 180.841 287.376 181.548 287.391 181.93C287.415 182.586 287.465 183.24 287.539 183.891Z" fill="black"/>
<path d="M284.27 172.324C283.948 173.378 284.421 174.517 284.831 175.525C285.841 178.006 286.543 180.654 287.241 183.29C287.293 183.488 287.345 183.703 287.287 183.898C287.237 184.037 287.155 184.155 287.051 184.239C286.57 184.684 285.957 184.843 285.384 185.076C284.83 185.302 284.3 185.605 283.803 185.98C283.388 186.293 282.999 186.656 282.61 187.017L281.374 188.168C281.294 188.234 281.224 188.317 281.167 188.412C281.048 188.64 281.097 188.938 281.156 189.199C281.313 189.889 281.516 190.562 281.762 191.213C281.802 191.355 281.879 191.478 281.981 191.563C282.174 191.69 282.41 191.522 282.557 191.324C282.705 191.127 282.832 190.881 283.04 190.796C283.247 190.711 283.476 190.814 283.692 190.777C284.043 190.717 284.276 190.323 284.528 190.021C285.56 188.787 287.283 188.876 288.419 187.785C288.583 187.606 288.757 187.44 288.939 187.29C289.131 187.151 289.348 187.075 289.548 186.953C290.153 186.581 290.534 185.813 290.738 185.024C290.942 184.236 291 183.403 291.147 182.596C291.223 182.179 291.322 181.766 291.356 181.341C291.378 180.945 291.371 180.548 291.335 180.154L290.925 173.976C290.892 173.473 290.858 172.969 290.794 172.471C289.577 172.524 288.361 172.583 287.144 172.601C286.175 172.615 285.189 172.697 284.27 172.324Z" fill="#2F2E41"/>
<path d="M283.822 173.77C283.987 174.093 284.389 174.087 284.666 173.909C284.942 173.732 285.157 173.434 285.434 173.258C285.807 173.022 286.248 173.03 286.668 173.045C287.333 173.068 288.005 173.092 288.645 173.314C289.306 173.544 289.95 173.986 290.634 173.898C290.753 173.883 290.883 173.841 290.948 173.718C290.986 173.629 291.004 173.53 291 173.43L291.022 172.701C291.036 172.575 291.019 172.447 290.975 172.332C290.917 172.237 290.839 172.163 290.748 172.121C289.774 171.546 288.664 171.439 287.583 171.394C287.034 171.371 286.484 171.362 285.934 171.366C285.468 171.369 284.907 171.287 284.454 171.439C283.845 171.643 283.513 173.164 283.822 173.77Z" fill="#2F2E41"/>
<path d="M289.935 154.691C288.66 154.677 287.504 153.651 286.228 153.626C286.074 153.613 285.92 153.645 285.778 153.721C285.6 153.83 285.484 154.041 285.349 154.219C284.971 154.717 284.425 154.983 284.038 155.469C283.675 155.924 283.473 156.603 283.616 157.214C283.759 157.825 284.301 158.293 284.808 158.147C285.012 157.34 285.434 156.642 286.005 156.164C286.301 155.932 286.614 155.732 286.94 155.566C287.513 155.249 288.154 154.927 288.753 155.164C288.973 155.266 289.181 155.404 289.371 155.575L290.369 156.392C290.252 155.833 290.148 155.206 289.935 154.691Z" fill="#1C6DE8"/>
<path d="M284.661 157.606C284.492 157.864 284.736 158.237 284.698 158.564C284.673 158.781 284.527 158.947 284.466 159.154C284.402 159.367 284.436 159.604 284.412 159.829C284.388 159.993 284.352 160.154 284.305 160.311C284.198 160.778 284.123 161.255 284.081 161.738L283.858 163.77C283.819 164.076 283.796 164.385 283.787 164.694C283.799 164.925 283.786 165.157 283.75 165.385C283.7 165.607 283.591 165.801 283.517 166.013C283.443 166.225 283.409 166.481 283.509 166.677C283.176 167.015 283.077 167.68 283.31 168.125C283.354 168.195 283.389 168.273 283.412 168.356C283.425 168.472 283.409 168.59 283.367 168.696L283.141 169.429C283.083 169.617 283.065 169.903 283.226 169.945C283.093 170.114 282.989 170.314 282.921 170.532C282.888 170.642 282.878 170.76 282.892 170.876C282.907 170.992 282.944 171.101 283.002 171.194C283.058 171.254 283.106 171.325 283.144 171.403C283.166 171.513 283.16 171.628 283.127 171.733C283.094 171.894 283.087 172.06 283.108 172.224C283.129 172.387 283.178 172.543 283.25 172.683C283.325 172.821 283.432 172.929 283.557 172.994C283.682 173.06 283.819 173.079 283.953 173.05C284.405 172.926 284.81 172.73 285.266 172.832C286.246 173.051 287.23 173.272 288.179 173.641C289.263 174.063 290.312 174.682 291.445 174.811C291.519 174.83 291.597 174.815 291.663 174.77C291.721 174.703 291.757 174.613 291.764 174.517C291.881 173.85 291.998 173.183 292.114 172.516C292.255 171.777 292.363 171.028 292.436 170.274C292.476 169.788 292.487 169.299 292.499 168.81L292.589 164.92C292.631 164.346 292.568 163.769 292.405 163.229L291.886 161.209C291.59 160.056 290.911 159.034 290.669 157.863C290.516 157.122 290.403 156.326 289.992 155.749C289.407 154.925 288.394 154.797 287.508 154.938C287.107 155.002 286.704 155.113 286.357 155.366C285.957 155.659 285.662 156.12 285.376 156.57C285.141 156.942 284.902 157.24 284.661 157.606Z" fill="#1C6DE8"/>
<path d="M286.73 169.049C286.803 169.433 286.957 169.787 287.051 170.164C287.208 170.795 287.195 171.476 287.352 172.108C287.418 172.373 287.513 172.628 287.56 172.899C287.671 173.531 287.51 174.184 287.31 174.783C287.11 175.381 286.866 175.971 286.801 176.612C286.755 177.064 286.821 177.574 287.107 177.867C287.403 178.171 287.834 178.151 288.22 178.11C288.359 178.105 288.495 178.071 288.624 178.008C288.919 177.837 289.044 177.411 289.113 177.022C289.344 175.718 289.278 174.366 289.211 173.034L289.035 169.55C289.001 168.879 288.965 168.195 288.795 167.551C288.734 167.317 288.626 166.843 288.451 166.694C288.277 166.546 287.78 166.539 287.565 166.527C286.555 166.469 286.567 168.187 286.73 169.049Z" fill="#A6775B"/>
<path d="M287.849 156.187C287.643 156.056 287.383 156.112 287.184 156.259C286.991 156.42 286.823 156.619 286.685 156.849C286.24 157.512 285.768 158.273 285.834 159.126C285.859 159.446 285.959 159.749 286.028 160.06C286.326 161.421 285.996 162.861 286.034 164.27C286.056 165.083 286.201 165.884 286.346 166.679C286.375 166.841 286.423 167.029 286.551 167.084C286.648 167.125 286.752 167.072 286.848 167.028C287.205 166.867 287.588 166.813 287.965 166.871C288.342 166.929 288.703 167.097 289.015 167.361C289.254 167.205 289.165 166.713 289.111 166.389C288.952 165.427 289.168 164.434 289.431 163.506C289.693 162.578 290.008 161.651 290.051 160.671C290.1 159.56 289.798 158.476 289.5 157.424C289.435 157.195 289.364 156.954 289.213 156.796C289.084 156.679 288.936 156.596 288.779 156.554C288.462 156.44 288.142 156.374 287.849 156.187Z" fill="#2F2E41"/>
</g>
<defs>
<clipPath id="clip0_0_1">
<rect width="218" height="193" fill="white" transform="translate(-6)"/>
</clipPath>
<clipPath id="clip1_0_1">
<rect width="80" height="58" fill="white" transform="translate(214 78)"/>
</clipPath>
<clipPath id="clip2_0_1">
<rect width="1015.13" height="526" fill="white" transform="translate(-213 -94)"/>
</clipPath>
<clipPath id="clip3_0_1">
<rect width="94" height="87" fill="white" transform="translate(270 113)"/>
</clipPath>
</defs>
</svg>
