<svg width="219" height="138" viewBox="0 0 219 138" fill="none" xmlns="http://www.w3.org/2000/svg">
<g clip-path="url(#clip0_2768_89)">
<path d="M94.9483 55.7559C94.9483 55.7559 112.905 56.6229 113.986 62.9093C115.068 69.1957 93.0012 63.5597 93.0012 63.5597L94.9483 55.7559Z" fill="#A0616A"/>
<path d="M66.6077 35.8125C66.6077 35.8125 69.6364 36.6796 72.0162 41.8821C74.3959 47.0847 79.1554 51.8537 79.1554 51.8537L98.4097 55.5388L95.1646 65.2935L76.7757 62.909L65.3096 56.4059L66.6077 35.8125Z" fill="#575A89"/>
<path opacity="0.1" d="M66.6077 35.8125C66.6077 35.8125 69.6364 36.6796 72.0162 41.8821C74.3959 47.0847 79.1554 51.8537 79.1554 51.8537L98.4097 55.5388L95.1646 65.2935L76.7757 62.909L65.3096 56.4059L66.6077 35.8125Z" fill="black"/>
<path d="M214.044 18.1455H191.328V18.579H214.044V18.1455Z" fill="#3F3D56"/>
<path d="M173.588 18.1455H101.547V18.579H173.588V18.1455Z" fill="#3F3D56"/>
<path d="M190.246 70.3877H19.5536V135.636H190.246V70.3877Z" fill="#3F3D56"/>
<path d="M38.0507 25.8412L39.9978 38.1972L53.4109 38.8475L51.8965 20.6387L38.0507 25.8412Z" fill="#A0616A"/>
<path d="M23.8805 108.323L23.2314 135.636H43.5675L46.5962 124.798L48.976 135.636H70.1773C70.1773 135.636 70.61 104.421 68.2303 104.204C65.8505 103.987 23.8805 108.323 23.8805 108.323Z" fill="#2F2E41"/>
<path d="M42.3776 29.0931C48.8296 29.0931 54.06 23.8522 54.06 17.3874C54.06 10.9225 48.8296 5.68164 42.3776 5.68164C35.9256 5.68164 30.6952 10.9225 30.6952 17.3874C30.6952 23.8522 35.9256 29.0931 42.3776 29.0931Z" fill="#A0616A"/>
<path d="M22.6905 109.515L28.7481 79.6005L20.7435 39.9312L39.1788 32.9997L48.2187 31.9106L52.7633 31.0605L56.007 31.9106C56.007 31.9106 68.9874 35.1622 69.6364 37.5467C70.2855 39.9312 67.0404 59.4407 67.0404 59.4407L64.0116 75.4818L70.7181 104.313C70.7181 104.313 42.8102 113.851 23.1232 109.515H22.6905Z" fill="#575A89"/>
<path opacity="0.1" d="M30.8033 50.8779V58.8985L56.3298 58.9334L32.1014 56.2972L30.8033 50.8779Z" fill="black"/>
<path opacity="0.1" d="M28.6109 73.029L60.6583 68.4365L28.6109 77.5314V73.029Z" fill="black"/>
<path opacity="0.1" d="M79.4799 51.9619L76.0442 64.3667L81.8596 52.3712L79.4799 51.9619Z" fill="black"/>
<path d="M51.9919 5.64728L54.1402 4.78551C54.1402 4.78551 49.6484 -0.169625 43.3988 0.261277L45.1565 -1.67771C45.1565 -1.67771 40.86 -3.40122 36.954 1.12301C34.9007 3.5013 32.5251 6.29687 31.0441 9.44603H28.7434L29.7036 11.5645L26.3429 13.683L29.7924 13.3025C29.5868 14.4626 29.5553 15.6469 29.6987 16.8164C29.8467 17.9862 30.4425 19.0526 31.3603 19.7906V19.7906C31.3603 19.7906 34.0246 14.2649 34.0246 13.4031V15.5575C34.0246 15.5575 36.1729 13.6186 36.1729 12.3259L37.3446 13.834L37.9305 11.4642L45.1565 13.834L43.9847 11.8951L48.4766 12.5414L46.7189 10.1715C46.7189 10.1715 51.7966 12.9722 51.9919 15.3421C52.1872 17.7119 53.6735 19.9575 53.6735 19.9575C53.6735 19.9575 57.6556 8.87887 51.9919 5.64728Z" fill="#2F2E41"/>
<path d="M146.545 48.9277H63.4707V135.853H146.545V48.9277Z" fill="#D0CDE1"/>
<path d="M133.565 68.0029H72.1244V76.6738H133.565V68.0029Z" fill="#6C63FF"/>
<path d="M122.925 90.9814H82.6868V95.3169H122.925V90.9814Z" fill="#6C63FF"/>
<path d="M123.003 98.5684H82.7645V102.904H123.003V98.5684Z" fill="#6C63FF"/>
<path d="M102.961 106.155H82.8422V110.491H102.961V106.155Z" fill="#6C63FF"/>
<path d="M134.647 128.049H125.344V132.384H134.647V128.049Z" fill="#6C63FF"/>
<path d="M57.5214 59.8743C57.5214 59.8743 76.343 57.0563 79.1554 61.175C81.9678 65.2936 59.2521 67.4614 59.2521 67.4614L57.5214 59.8743Z" fill="#A0616A"/>
<path d="M22.9069 39.7149H21.5513C20.9938 39.7133 20.4563 39.9229 20.0465 40.3017C18.7597 41.4988 16.0389 44.5883 14.9023 50.1199C13.3879 57.4902 10.7918 71.7972 16.633 72.881C22.4742 73.9649 60.7665 68.7623 60.7665 68.7623L57.9541 58.7908L30.2625 59.0076C30.2625 59.0076 30.6952 54.2386 29.8298 51.2038C28.9644 48.169 22.9069 39.7149 22.9069 39.7149Z" fill="#575A89"/>
<path d="M101.547 27.2499C106.445 27.2499 110.417 23.2708 110.417 18.3623C110.417 13.4538 106.445 9.47461 101.547 9.47461C96.6479 9.47461 92.6767 13.4538 92.6767 18.3623C92.6767 23.2708 96.6479 27.2499 101.547 27.2499Z" fill="#D0CDE1"/>
<path d="M142.002 27.2499C146.901 27.2499 150.872 23.2708 150.872 18.3623C150.872 13.4538 146.901 9.47461 142.002 9.47461C137.104 9.47461 133.132 13.4538 133.132 18.3623C133.132 23.2708 137.104 27.2499 142.002 27.2499Z" fill="#3F3D56"/>
<path d="M182.458 27.4667C180.661 27.4667 178.904 26.9327 177.41 25.9323C175.916 24.9319 174.751 23.51 174.063 21.8464C173.376 20.1828 173.196 18.3522 173.546 16.5861C173.897 14.82 174.762 13.1977 176.033 11.9244C177.304 10.6512 178.923 9.78405 180.685 9.43276C182.448 9.08146 184.275 9.26176 185.935 9.95085C187.596 10.6399 189.015 11.8069 190.013 13.3041C191.011 14.8013 191.544 16.5616 191.544 18.3623C191.542 20.7761 190.583 23.0902 188.88 24.7971C187.177 26.5039 184.867 27.464 182.458 27.4667V27.4667ZM182.458 9.69136C180.747 9.69136 179.073 10.1999 177.65 11.1527C176.227 12.1054 175.118 13.4597 174.463 15.044C173.808 16.6284 173.637 18.3719 173.971 20.0539C174.305 21.7359 175.129 23.2809 176.339 24.4935C177.549 25.7062 179.091 26.532 180.77 26.8665C182.448 27.2011 184.188 27.0294 185.77 26.3731C187.351 25.7168 188.702 24.6055 189.653 23.1796C190.604 21.7536 191.112 20.0772 191.112 18.3623C191.109 16.0634 190.196 13.8594 188.574 12.2339C186.952 10.6083 184.752 9.69397 182.458 9.69136Z" fill="#3F3D56"/>
<path d="M222.914 27.4667C221.117 27.4667 219.36 26.9327 217.866 25.9323C216.371 24.9319 215.207 23.51 214.519 21.8464C213.831 20.1828 213.651 18.3522 214.002 16.5861C214.353 14.82 215.218 13.1977 216.489 11.9244C217.759 10.6512 219.378 9.78405 221.141 9.43276C222.904 9.08146 224.731 9.26176 226.391 9.95085C228.051 10.6399 229.47 11.8069 230.469 13.3041C231.467 14.8013 232 16.5616 232 18.3623C231.997 20.7761 231.039 23.0902 229.336 24.7971C227.632 26.5039 225.323 27.464 222.914 27.4667V27.4667ZM222.914 9.69136C221.202 9.69136 219.529 10.1999 218.106 11.1527C216.683 12.1054 215.574 13.4597 214.919 15.044C214.264 16.6284 214.092 18.3719 214.426 20.0539C214.76 21.7359 215.584 23.2809 216.795 24.4935C218.005 25.7062 219.547 26.532 221.225 26.8665C222.904 27.2011 224.644 27.0294 226.225 26.3731C227.807 25.7168 229.158 24.6055 230.109 23.1796C231.06 21.7536 231.567 20.0772 231.567 18.3623C231.565 16.0634 230.652 13.8594 229.03 12.2339C227.408 10.6083 225.208 9.69397 222.914 9.69136Z" fill="#3F3D56"/>
<path d="M100.324 22.1436L96.48 17.0085L97.8646 15.9678L100.511 19.5033L112.678 7.3125L113.901 8.53856L100.324 22.1436Z" fill="#3F3D56"/>
<path d="M193.231 135.396H16.5687V136H193.231V135.396Z" fill="#3F3D56"/>
</g>
<defs>
<clipPath id="clip0_2768_89">
<rect width="219" height="138" fill="white"/>
</clipPath>
</defs>
</svg>
